<svg width="439" height="163" viewBox="0 0 439 163" fill="none" xmlns="http://www.w3.org/2000/svg">
<path d="M63.6797 23.3203C98.8492 23.3203 127.359 51.8305 127.359 87C127.359 113.548 111.113 136.3 88.0205 145.86L75.1279 98.4785L64.3477 93.8545L98.5303 93.7559L87.6592 84.6729C87.7333 84.2312 87.793 83.7835 87.8389 83.332C89.0173 71.7516 80.5844 61.4089 69.0039 60.2305C57.4233 59.0522 47.0798 67.4849 45.9014 79.0654C45.7114 80.9331 45.5084 82.9294 45.2949 85.0264C44.9495 88.4227 44.5769 92.0852 44.1885 95.9023C44.1719 96.0657 44.1553 96.2296 44.1387 96.3936C43.9996 97.7599 43.8583 99.1466 43.7158 100.546C42.119 116.24 40.3426 133.696 39.1143 145.768C16.141 136.153 0 113.462 0 87C8.99795e-07 51.8305 28.5102 23.3203 63.6797 23.3203ZM72.333 74.8945C74.7477 74.9109 76.692 76.8813 76.6758 79.2959C76.6592 81.7106 74.6882 83.6551 72.2734 83.6387C69.8588 83.6222 67.9144 81.651 67.9307 79.2363C67.9473 76.8218 69.9185 74.8784 72.333 74.8945ZM36.4043 59.9033C33.3891 59.4352 30.5658 61.4995 30.0977 64.5146C29.6298 67.5294 31.6942 70.353 34.709 70.8213C37.7239 71.2892 40.5477 69.2241 41.0156 66.209C41.4836 63.1943 39.4189 60.3716 36.4043 59.9033ZM44.5322 44.4395C41.5175 43.9719 38.6947 46.0371 38.2266 49.0518C37.7587 52.0666 39.8227 54.8905 42.8379 55.3584C45.8528 55.8265 48.6764 53.761 49.1445 50.7461C49.6121 47.7311 47.5472 44.9076 44.5322 44.4395ZM62.1133 41.4531C59.0982 40.985 56.2747 43.0498 55.8066 46.0645C55.3385 49.0796 57.4031 51.9032 60.418 52.3711C63.4331 52.8392 66.2566 50.7746 66.7246 47.7598C67.1927 44.7448 65.128 41.9212 62.1133 41.4531Z" fill="white"/>
<path d="M188.52 32.424H179.304V46.608C179.304 50.784 181.512 52.872 185.928 52.872C186.936 52.872 187.8 52.776 188.52 52.584V60C187.32 60.288 185.88 60.432 184.2 60.432C180.216 60.432 177.048 59.256 174.696 56.904C172.392 54.504 171.24 51.12 171.24 46.752V32.424H164.544V24.792H171.24V15.36H179.304V24.792H188.52V32.424ZM213.505 24.072C218.017 24.072 221.569 25.488 224.161 28.32C226.801 31.152 228.121 35.016 228.121 39.912V60H220.057V40.92C220.057 38.136 219.265 35.928 217.681 34.296C216.145 32.616 214.105 31.776 211.561 31.776C208.921 31.776 206.809 32.616 205.225 34.296C203.641 35.928 202.849 38.136 202.849 40.92V60H194.857V9.6H202.849V30.336C205.201 26.16 208.753 24.072 213.505 24.072ZM270.105 41.64C270.105 43.224 270.033 44.352 269.889 45.024H242.889C243.417 47.664 244.569 49.728 246.345 51.216C248.121 52.704 250.401 53.448 253.185 53.448C255.345 53.448 257.193 52.992 258.729 52.08C260.313 51.12 261.273 49.896 261.609 48.408H269.673C269.049 52.104 267.201 55.08 264.129 57.336C261.057 59.592 257.361 60.72 253.041 60.72C247.905 60.72 243.561 58.944 240.009 55.392C236.505 51.84 234.753 47.448 234.753 42.216C234.753 37.128 236.505 32.832 240.009 29.328C243.513 25.824 247.809 24.072 252.897 24.072C257.697 24.072 261.753 25.728 265.065 29.04C268.425 32.352 270.105 36.552 270.105 41.64ZM243.105 38.184H261.393C261.009 36.12 260.025 34.464 258.441 33.216C256.857 31.968 254.865 31.344 252.465 31.344C250.065 31.344 248.049 31.944 246.417 33.144C244.785 34.344 243.681 36.024 243.105 38.184ZM195.432 82.792H203.496V118H195.432V111.808C192.792 116.416 188.64 118.72 182.976 118.72C178.32 118.72 174.336 116.944 171.024 113.392C167.76 109.792 166.128 105.448 166.128 100.36C166.128 95.272 167.76 90.952 171.024 87.4C174.336 83.848 178.32 82.072 182.976 82.072C188.64 82.072 192.792 84.376 195.432 88.984V82.792ZM184.704 111.088C187.776 111.088 190.32 110.08 192.336 108.064C194.4 106 195.432 103.432 195.432 100.36C195.432 97.336 194.4 94.816 192.336 92.8C190.32 90.736 187.776 89.704 184.704 89.704C181.728 89.704 179.208 90.736 177.144 92.8C175.08 94.864 174.048 97.384 174.048 100.36C174.048 103.336 175.08 105.88 177.144 107.992C179.208 110.056 181.728 111.088 184.704 111.088ZM230.662 82.072C235.174 82.072 238.726 83.488 241.318 86.32C243.958 89.152 245.278 93.016 245.278 97.912V118H237.214V98.92C237.214 96.136 236.422 93.928 234.838 92.296C233.302 90.616 231.262 89.776 228.718 89.776C226.078 89.776 223.966 90.616 222.382 92.296C220.798 93.928 220.006 96.136 220.006 98.92V118H212.014V82.792H220.006V88.336C222.358 84.16 225.91 82.072 230.662 82.072ZM281.213 82.792H289.277V118H281.213V111.808C278.573 116.416 274.421 118.72 268.757 118.72C264.101 118.72 260.117 116.944 256.805 113.392C253.541 109.792 251.909 105.448 251.909 100.36C251.909 95.272 253.541 90.952 256.805 87.4C260.117 83.848 264.101 82.072 268.757 82.072C274.421 82.072 278.573 84.376 281.213 88.984V82.792ZM270.485 111.088C273.557 111.088 276.101 110.08 278.117 108.064C280.181 106 281.213 103.432 281.213 100.36C281.213 97.336 280.181 94.816 278.117 92.8C276.101 90.736 273.557 89.704 270.485 89.704C267.509 89.704 264.989 90.736 262.925 92.8C260.861 94.864 259.829 97.384 259.829 100.36C259.829 103.336 260.861 105.88 262.925 107.992C264.989 110.056 267.509 111.088 270.485 111.088ZM316.443 82.072C320.955 82.072 324.507 83.488 327.099 86.32C329.739 89.152 331.059 93.016 331.059 97.912V118H322.995V98.92C322.995 96.136 322.203 93.928 320.619 92.296C319.083 90.616 317.043 89.776 314.499 89.776C311.859 89.776 309.747 90.616 308.163 92.296C306.579 93.928 305.787 96.136 305.787 98.92V118H297.795V82.792H305.787V88.336C308.139 84.16 311.691 82.072 316.443 82.072ZM358.535 90.424H349.319V104.608C349.319 108.784 351.527 110.872 355.943 110.872C356.951 110.872 357.815 110.776 358.535 110.584V118C357.335 118.288 355.895 118.432 354.215 118.432C350.231 118.432 347.063 117.256 344.711 114.904C342.407 112.504 341.255 109.12 341.255 104.752V90.424H334.559V82.792H341.255V73.36H349.319V82.792H358.535V90.424ZM390.479 82.792H398.543V118H390.479V111.808C387.839 116.416 383.687 118.72 378.023 118.72C373.367 118.72 369.383 116.944 366.071 113.392C362.807 109.792 361.175 105.448 361.175 100.36C361.175 95.272 362.807 90.952 366.071 87.4C369.383 83.848 373.367 82.072 378.023 82.072C383.687 82.072 387.839 84.376 390.479 88.984V82.792ZM379.751 111.088C382.823 111.088 385.367 110.08 387.383 108.064C389.447 106 390.479 103.432 390.479 100.36C390.479 97.336 389.447 94.816 387.383 92.8C385.367 90.736 382.823 89.704 379.751 89.704C376.775 89.704 374.255 90.736 372.191 92.8C370.127 94.864 369.095 97.384 369.095 100.36C369.095 103.336 370.127 105.88 372.191 107.992C374.255 110.056 376.775 111.088 379.751 111.088Z" fill="white"/>
<path opacity="0.7" d="M419.839 70.3V73.282H415.534V85H412.426V73.282H408.142V70.3H419.839ZM421.384 85V70.3H425.164L429.532 80.422L434.11 70.3H437.281V85H434.173V76.369L430.414 85H428.167L424.492 76.369V85H421.384Z" fill="white"/>
<g opacity="0.5">
<path d="M175.992 144.072C178.392 144.072 180.42 144.96 182.076 146.736C183.732 148.512 184.56 150.672 184.56 153.216C184.56 155.76 183.732 157.92 182.076 159.696C180.42 161.472 178.392 162.36 175.992 162.36C172.92 162.36 170.7 161.064 169.332 158.472V162H165.984V136.8H169.332V147.96C170.7 145.368 172.92 144.072 175.992 144.072ZM175.308 159.192C176.988 159.192 178.404 158.616 179.556 157.464C180.708 156.312 181.284 154.896 181.284 153.216C181.284 151.536 180.708 150.12 179.556 148.968C178.404 147.816 176.988 147.24 175.308 147.24C173.604 147.24 172.176 147.804 171.024 148.932C169.896 150.06 169.332 151.488 169.332 153.216C169.332 154.944 169.896 156.372 171.024 157.5C172.176 158.628 173.604 159.192 175.308 159.192ZM204.305 152.784C204.305 153.288 204.281 153.732 204.233 154.116H190.121C190.313 155.724 190.925 157.008 191.957 157.968C193.013 158.904 194.345 159.372 195.953 159.372C197.177 159.372 198.233 159.096 199.121 158.544C200.033 157.992 200.597 157.248 200.813 156.312H204.125C203.813 158.136 202.889 159.6 201.353 160.704C199.817 161.808 197.981 162.36 195.845 162.36C193.301 162.36 191.165 161.484 189.437 159.732C187.709 157.956 186.845 155.76 186.845 153.144C186.845 150.6 187.709 148.452 189.437 146.7C191.165 144.948 193.289 144.072 195.809 144.072C198.185 144.072 200.189 144.9 201.821 146.556C203.477 148.188 204.305 150.264 204.305 152.784ZM190.229 151.308H200.705C200.561 150.06 200.021 149.052 199.085 148.284C198.173 147.492 197.033 147.096 195.665 147.096C194.297 147.096 193.121 147.468 192.137 148.212C191.177 148.956 190.541 149.988 190.229 151.308ZM219.605 136.8V162H216.257V136.8H219.605ZM224.31 137.232C224.766 136.776 225.294 136.548 225.894 136.548C226.494 136.548 227.01 136.776 227.442 137.232C227.898 137.664 228.126 138.18 228.126 138.78C228.126 139.38 227.898 139.908 227.442 140.364C227.01 140.796 226.494 141.012 225.894 141.012C225.294 141.012 224.766 140.796 224.31 140.364C223.878 139.908 223.662 139.38 223.662 138.78C223.662 138.18 223.878 137.664 224.31 137.232ZM224.202 144.432H227.55V162H224.202V144.432ZM252.56 144.072C254.72 144.072 256.448 144.732 257.744 146.052C259.064 147.372 259.724 149.148 259.724 151.38V162H256.412V152.064C256.412 150.576 256.016 149.4 255.224 148.536C254.456 147.672 253.4 147.24 252.056 147.24C250.832 147.24 249.776 147.648 248.888 148.464C248.024 149.28 247.592 150.48 247.592 152.064V162H244.28V152.064C244.28 150.576 243.884 149.4 243.092 148.536C242.324 147.672 241.256 147.24 239.888 147.24C238.688 147.24 237.656 147.648 236.792 148.464C235.928 149.256 235.496 150.456 235.496 152.064V162H232.148V144.432H235.496V147.168C236.624 145.104 238.46 144.072 241.004 144.072C243.812 144.072 245.732 145.224 246.764 147.528C247.268 146.472 248.048 145.632 249.104 145.008C250.16 144.384 251.312 144.072 252.56 144.072ZM264.459 137.232C264.915 136.776 265.443 136.548 266.043 136.548C266.643 136.548 267.159 136.776 267.591 137.232C268.047 137.664 268.275 138.18 268.275 138.78C268.275 139.38 268.047 139.908 267.591 140.364C267.159 140.796 266.643 141.012 266.043 141.012C265.443 141.012 264.915 140.796 264.459 140.364C264.027 139.908 263.811 139.38 263.811 138.78C263.811 138.18 264.027 137.664 264.459 137.232ZM264.351 144.432H267.699V162H264.351V144.432ZM281.944 147.6H277.192V155.7C277.192 157.956 278.368 159.084 280.72 159.084C281.224 159.084 281.632 159.036 281.944 158.94V162C281.416 162.144 280.78 162.216 280.036 162.216C278.14 162.216 276.64 161.664 275.536 160.56C274.432 159.456 273.88 157.86 273.88 155.772V147.6H270.46V144.432H273.88V139.68H277.192V144.432H281.944V147.6ZM288.722 136.8V162H285.374V136.8H288.722ZM309.457 152.784C309.457 153.288 309.433 153.732 309.385 154.116H295.273C295.465 155.724 296.077 157.008 297.109 157.968C298.165 158.904 299.497 159.372 301.105 159.372C302.329 159.372 303.385 159.096 304.273 158.544C305.185 157.992 305.749 157.248 305.965 156.312H309.277C308.965 158.136 308.041 159.6 306.505 160.704C304.969 161.808 303.133 162.36 300.997 162.36C298.453 162.36 296.317 161.484 294.589 159.732C292.861 157.956 291.997 155.76 291.997 153.144C291.997 150.6 292.861 148.452 294.589 146.7C296.317 144.948 298.441 144.072 300.961 144.072C303.337 144.072 305.341 144.9 306.973 146.556C308.629 148.188 309.457 150.264 309.457 152.784ZM295.381 151.308H305.857C305.713 150.06 305.173 149.052 304.237 148.284C303.325 147.492 302.185 147.096 300.817 147.096C299.449 147.096 298.273 147.468 297.289 148.212C296.329 148.956 295.693 149.988 295.381 151.308ZM319.269 162.36C317.205 162.36 315.501 161.844 314.157 160.812C312.813 159.78 312.057 158.376 311.889 156.6H315.057C315.177 157.464 315.609 158.16 316.353 158.688C317.097 159.216 318.021 159.48 319.125 159.48C320.205 159.48 321.069 159.252 321.717 158.796C322.389 158.34 322.725 157.74 322.725 156.996C322.725 156.204 322.365 155.604 321.645 155.196C320.925 154.764 320.049 154.464 319.017 154.296C318.009 154.104 316.989 153.888 315.957 153.648C314.949 153.384 314.085 152.892 313.365 152.172C312.645 151.452 312.285 150.48 312.285 149.256C312.285 147.744 312.873 146.508 314.049 145.548C315.225 144.564 316.785 144.072 318.729 144.072C320.529 144.072 322.077 144.552 323.373 145.512C324.693 146.448 325.461 147.732 325.677 149.364H322.329C322.209 148.644 321.813 148.056 321.141 147.6C320.469 147.12 319.641 146.88 318.657 146.88C317.721 146.88 316.965 147.072 316.389 147.456C315.813 147.84 315.525 148.356 315.525 149.004C315.525 149.652 315.777 150.168 316.281 150.552C316.809 150.912 317.457 151.164 318.225 151.308C318.993 151.428 319.833 151.596 320.745 151.812C321.657 152.028 322.497 152.28 323.265 152.568C324.033 152.856 324.669 153.372 325.173 154.116C325.701 154.86 325.965 155.796 325.965 156.924C325.965 158.484 325.329 159.78 324.057 160.812C322.785 161.844 321.189 162.36 319.269 162.36ZM335.616 162.36C333.552 162.36 331.848 161.844 330.504 160.812C329.16 159.78 328.404 158.376 328.236 156.6H331.404C331.524 157.464 331.956 158.16 332.7 158.688C333.444 159.216 334.368 159.48 335.472 159.48C336.552 159.48 337.416 159.252 338.064 158.796C338.736 158.34 339.072 157.74 339.072 156.996C339.072 156.204 338.712 155.604 337.992 155.196C337.272 154.764 336.396 154.464 335.364 154.296C334.356 154.104 333.336 153.888 332.304 153.648C331.296 153.384 330.432 152.892 329.712 152.172C328.992 151.452 328.632 150.48 328.632 149.256C328.632 147.744 329.22 146.508 330.396 145.548C331.572 144.564 333.132 144.072 335.076 144.072C336.876 144.072 338.424 144.552 339.72 145.512C341.04 146.448 341.808 147.732 342.024 149.364H338.676C338.556 148.644 338.16 148.056 337.488 147.6C336.816 147.12 335.988 146.88 335.004 146.88C334.068 146.88 333.312 147.072 332.736 147.456C332.16 147.84 331.872 148.356 331.872 149.004C331.872 149.652 332.124 150.168 332.628 150.552C333.156 150.912 333.804 151.164 334.572 151.308C335.34 151.428 336.18 151.596 337.092 151.812C338.004 152.028 338.844 152.28 339.612 152.568C340.38 152.856 341.016 153.372 341.52 154.116C342.048 154.86 342.312 155.796 342.312 156.924C342.312 158.484 341.676 159.78 340.404 160.812C339.132 161.844 337.536 162.36 335.616 162.36ZM349.837 161.676C349.381 162.132 348.805 162.36 348.109 162.36C347.413 162.36 346.825 162.132 346.345 161.676C345.889 161.22 345.661 160.644 345.661 159.948C345.661 159.276 345.889 158.712 346.345 158.256C346.825 157.776 347.413 157.536 348.109 157.536C348.781 157.536 349.357 157.776 349.837 158.256C350.317 158.712 350.557 159.276 350.557 159.948C350.557 160.62 350.317 161.196 349.837 161.676Z" fill="white"/>
</g>
</svg>
