<svg xmlns="http://www.w3.org/2000/svg" width="332" height="156" aria-hidden="true">
  <g fill="none" fill-rule="evenodd">
    <path fill="#DADCE0" d="M169 0c-28.72 0-52 23.281-52 52h104c0-28.719-23.281-52-52-52m0 4.063c25.065 0 45.698 19.335 47.767 43.874h-95.534C123.302 23.398 143.935 4.063 169 4.063"/>
    <path fill="#F1F3F4" d="M169 156c28.72 0 52-23.281 52-52H117c0 28.719 23.28 52 52 52"/>
    <path fill="#9AA0A6" d="M117 104h104V52H117z"/>
    <path fill="#F1F3F4" d="M104 26c0 14.36-11.64 26-26 26S52 40.36 52 26 63.64 0 78 0s26 11.64 26 26"/>
    <path fill="#DADCE0" d="M52 156h52v-52H52v52zm4.063-4.063h43.874v-43.875H56.063v43.876zM52 0 0 32.5V104h52V0zm-4.063 7.33v92.608H4.063V34.75L47.937 7.33z"/>
    <path fill="#9AA0A6" d="M52 104h52V52H52z"/>
    <path fill="#F1F3F4" d="M331.5 26c0 14.36-11.64 26-26 26s-26-11.64-26-26 11.64-26 26-26 26 11.64 26 26"/>
    <path fill="#DADCE0" d="M279.5 156h52v-52h-52v52zm4.875-4.875h42.25v-42.25h-42.25v42.25zM279.5 0l-52 32.5V104h52V0zm-4.875 8.795v90.33h-42.25V35.202l42.25-26.407z"/>
    <path fill="#9AA0A6" d="M279.5 104h52V52h-52z"/>
  </g>
</svg>
